<svg width="21" height="21" viewBox="0 0 21 21" fill="none" xmlns="http://www.w3.org/2000/svg">
<path d="M13.186 13.553C13.6385 13.553 14.0062 13.9198 14.0063 14.3723C14.0063 14.8257 13.6386 15.1926 13.186 15.1926H7.02783C6.57538 15.1925 6.2085 14.8257 6.2085 14.3723C6.20864 13.9199 6.57544 13.5531 7.02783 13.553H13.186Z" fill="#01252F" stroke="#01252F" stroke-width="0.1"/>
<path d="M8.99072 0.213379C9.71925 -0.00424577 10.4956 -0.0042731 11.2241 0.213379C11.6827 0.350471 12.0803 0.591632 12.4907 0.902832C12.8927 1.20815 13.3558 1.62027 13.9253 2.12646L17.6851 5.46826C18.4641 6.16174 18.9668 6.5997 19.3296 7.14014C19.6391 7.60111 19.868 8.11301 20.0073 8.65088C20.1704 9.28053 20.1646 9.94694 20.1646 10.9897V14.4048C20.1646 15.253 20.1657 15.9388 20.1206 16.4937C20.0746 17.0572 19.9754 17.5574 19.7388 18.021C19.3652 18.7544 18.7691 19.3514 18.0356 19.7251C17.5713 19.9609 17.0717 20.06 16.5073 20.106C15.9532 20.1519 15.2673 20.1499 14.4185 20.1499H5.79639C4.94737 20.1499 4.26167 20.1519 3.70752 20.106C3.14306 20.06 2.64358 19.9609 2.1792 19.7251C1.44576 19.3507 0.849734 18.7545 0.476074 18.021C0.239389 17.5574 0.140201 17.0572 0.0942383 16.4937C0.049136 15.9387 0.0502928 15.253 0.050293 14.4048V10.9897C0.0502915 9.94691 0.0444625 9.28056 0.20752 8.65088C0.346849 8.113 0.575778 7.60109 0.885254 7.14014C1.24802 6.59974 1.75075 6.16173 2.52979 5.46826L6.28955 2.12646C6.85889 1.62037 7.32121 1.2081 7.72314 0.902832C8.13365 0.59153 8.53199 0.350491 8.99072 0.213379ZM10.7544 1.78467C10.3325 1.65843 9.88237 1.65845 9.46045 1.78467C9.2656 1.8432 9.04632 1.95792 8.71436 2.20947C8.37468 2.4678 7.96758 2.82886 7.37939 3.35205L3.61963 6.69385C2.776 7.44346 2.46587 7.72633 2.24658 8.05322C2.04049 8.36038 1.88686 8.7025 1.79443 9.06104C1.6954 9.44222 1.68994 9.86226 1.68994 10.9897V14.4048C1.68994 15.2801 1.68996 15.8869 1.729 16.3589V16.3599C1.76642 16.822 1.83692 17.0823 1.93604 17.2769V17.2778C2.15256 17.7029 2.49923 18.0487 2.92432 18.2651H2.92334C3.11724 18.3636 3.37853 18.4339 3.84131 18.4722C4.31341 18.5104 4.92104 18.5103 5.79639 18.5103H14.4185C15.2938 18.5103 15.9014 18.5104 16.3735 18.4722C16.8359 18.434 17.0968 18.3635 17.2915 18.2651L17.4478 18.1782C17.8011 17.9612 18.0894 17.6497 18.2788 17.2778V17.2769C18.3779 17.0823 18.4484 16.822 18.4858 16.3599V16.3589C18.5249 15.8869 18.5249 15.2801 18.5249 14.4048V10.9897C18.5249 9.86226 18.5196 9.44227 18.4214 9.06104C18.3282 8.70248 18.1743 8.36038 17.9683 8.05322C17.749 7.72636 17.4389 7.44349 16.5952 6.69385L12.8364 3.35205C12.2481 2.82874 11.8402 2.46784 11.5005 2.20947C11.1686 1.95799 10.9492 1.8432 10.7544 1.78467Z" fill="#01252F" stroke="#01252F" stroke-width="0.1"/>
</svg>
