<svg width="26" height="21" viewBox="0 0 26 21" fill="none" xmlns="http://www.w3.org/2000/svg">
<path d="M23.0618 2.43774C24.4758 2.45009 25.6177 3.5968 25.6233 5.01196C25.6233 5.04361 25.6244 14.3647 25.6233 14.427C25.6169 15.7369 24.6362 16.8128 23.3694 16.9749L23.3704 18.7073V18.7083C23.3702 19.4139 22.9457 20.048 22.2952 20.3176V20.3186C22.0799 20.4068 21.8521 20.4504 21.6282 20.4504C21.1751 20.4503 20.7295 20.2733 20.3958 19.9407L17.4524 16.9973H8.49146C8.15496 16.9889 7.88315 16.7131 7.88306 16.3743C7.88306 16.0307 8.16068 15.7512 8.50513 15.7512H9.63501C10.7625 15.7514 13.015 15.7517 17.5149 15.7522C17.8052 15.7522 18.0848 15.8671 18.2903 16.0725L21.2766 19.0598H21.2756C21.3708 19.1542 21.4984 19.2052 21.6282 19.2053C21.6927 19.2053 21.7554 19.1937 21.8167 19.1682L21.8303 19.1624C22.009 19.0821 22.1251 18.9049 22.1252 18.7083V16.8411L22.1301 16.7356C22.1794 16.2119 22.6004 15.7903 23.1389 15.7502H23.1399C23.7869 15.7023 24.306 15.1935 24.3713 14.551L24.3792 14.4211V14.2581C24.3796 14.1024 24.3808 13.7975 24.3811 13.2024C24.3818 12.0123 24.3818 9.66028 24.3792 5.01294C24.3792 4.32829 23.8545 3.76384 23.1858 3.69067L23.05 3.68286H21.0569C20.7129 3.68285 20.4339 3.40374 20.4338 3.05981C20.4338 2.71685 20.7129 2.43774 21.0559 2.43774H23.0618ZM2.58813 1.40259C1.92075 1.47594 1.40019 2.03994 1.39575 2.72485V12.1331L1.40259 12.2629C1.46811 12.9062 1.98794 13.4154 2.63599 13.4631C3.20963 13.5046 3.64963 13.9819 3.64868 14.553V16.4202C3.64868 16.5962 3.74185 16.7566 3.88989 16.8459L3.95825 16.8801L4.05103 16.9084C4.08213 16.9144 4.11363 16.9172 4.14575 16.9172C4.27567 16.9172 4.40305 16.8662 4.49829 16.7717L7.48462 13.7844V13.7834C7.68986 13.5796 7.96901 13.4642 8.25903 13.4641H17.2454C17.9453 13.4214 18.5012 12.8419 18.5042 12.1331V12.1086C18.5043 12.0872 18.5049 12.0462 18.5051 11.968C18.5055 11.811 18.5058 11.5045 18.5061 10.9084C18.5068 9.71637 18.5068 7.36442 18.5042 2.72681C18.504 2.04164 17.9826 1.47748 17.3147 1.40356L17.1799 1.39478H2.72388L2.58813 1.40259ZM14.7356 9.57251C15.0799 9.57265 15.3577 9.85207 15.3577 10.1956C15.3574 10.5393 15.0793 10.8165 14.7356 10.8167H5.16431C4.82046 10.8167 4.54249 10.5393 4.54224 10.1956C4.54224 9.85198 4.81986 9.57251 5.16431 9.57251H14.7356ZM14.7356 6.77075C15.0797 6.7709 15.3577 7.05016 15.3577 7.39282C15.3574 7.7361 15.0798 8.01573 14.7356 8.01587H5.16431C4.82021 8.01587 4.54244 7.73637 4.54224 7.3938C4.54224 7.05022 4.81986 6.77075 5.16431 6.77075H14.7356ZM10.2209 3.96899C10.5647 3.96899 10.844 4.24788 10.844 4.59106C10.8438 4.93491 10.5648 5.21411 10.2209 5.21411H5.16431C4.82005 5.21403 4.54243 4.93443 4.54224 4.59106C4.54224 4.24837 4.82014 3.96907 5.16431 3.96899H10.2209ZM19.7502 12.1379C19.7433 13.5228 18.6475 14.6512 17.2737 14.7092L17.2668 14.7102V14.7092H8.32153L5.37817 17.6526V17.6536C5.04433 17.9862 4.59888 18.1623 4.14575 18.1624C3.92187 18.1624 3.695 18.1187 3.47974 18.0305H3.47876C2.82802 17.7608 2.40356 17.1248 2.40356 16.4202V14.6868C1.13753 14.5243 0.157269 13.4493 0.150635 12.1399V2.72388L0.164307 2.46118C0.29975 1.17001 1.38754 0.16114 2.71313 0.149658H17.1868C18.6008 0.161886 19.7434 1.30896 19.7502 2.7229V12.1379Z" fill="#01252F" stroke="#01252F" stroke-width="0.3"/>
</svg>
