<svg width="18" height="20" viewBox="0 0 18 20" fill="none" xmlns="http://www.w3.org/2000/svg">
<path d="M0.0380646 16.7265C-0.0972945 17.5358 0.131987 18.3646 0.667899 18.9944C1.20934 19.6325 1.99939 19.9999 2.83641 19.9999H14.4662C15.295 19.9999 16.0795 19.6408 16.6237 19.0137C17.1513 18.4032 17.3889 17.5994 17.2756 16.8066C16.9055 14.2651 15.5602 12.453 13.2756 11.4171C9.44138 9.67954 5.80602 9.95854 2.75906 12.2292C1.26458 13.3397 0.350219 14.8535 0.0380646 16.7265ZM3.74801 13.558C5.19276 12.4834 6.76182 11.9447 8.44691 11.9447C9.76182 11.9447 11.143 12.2734 12.5878 12.9281C14.3502 13.7265 15.3447 15.0745 15.632 17.0469C15.6789 17.3673 15.585 17.6795 15.3668 17.9309C15.1403 18.1933 14.8088 18.3452 14.4635 18.3452H2.83365C2.48558 18.3452 2.15409 18.1933 1.93033 17.9253C1.70934 17.6629 1.61541 17.3342 1.67066 16.9999C1.91652 15.5441 2.59331 14.4171 3.74801 13.558Z" fill="#01252F"/>
<path d="M8.68714 9.70988C9.99377 9.69607 11.2783 9.1353 12.212 8.17398C13.1208 7.23752 13.6098 6.0414 13.5877 4.80107C13.5407 2.18507 11.2811 0 8.63742 0C8.61532 0 8.59322 0 8.56836 0C5.86946 0.0386738 3.69267 2.24308 3.71477 4.9171C3.72582 6.19886 4.23687 7.40051 5.15675 8.30105C6.08493 9.20989 7.31421 9.70988 8.62637 9.70988C8.64571 9.70988 8.66781 9.70988 8.68714 9.70988ZM5.37223 4.90328C5.35841 3.1381 6.8004 1.68231 8.59322 1.65745C8.60703 1.65745 8.62084 1.65745 8.63742 1.65745C10.3667 1.65745 11.8999 3.12981 11.9302 4.83422C11.944 5.6298 11.6208 6.40604 11.0242 7.02206C10.3971 7.66846 9.53797 8.04415 8.67057 8.0552C7.79212 8.06625 6.94681 7.73476 6.3225 7.1215C5.71753 6.52758 5.38051 5.7403 5.37223 4.90328Z" fill="#01252F"/>
</svg>
