<svg width="15" height="20" viewBox="0 0 15 20" fill="none" xmlns="http://www.w3.org/2000/svg">
<path d="M2.57031 0.0996094H9.49609C9.73493 0.0996094 9.9627 0.201696 10.1221 0.378906L10.1523 0.412109H10.1533L14.5938 5.36035C14.6089 5.37806 14.6137 5.38795 14.6377 5.41992L14.6387 5.42188L14.6729 5.46777C14.6901 5.49639 14.7064 5.52556 14.7207 5.55566L14.7217 5.55762C14.7371 5.5885 14.7398 5.5897 14.7451 5.60352V5.60449L14.7793 5.71582C14.7822 5.72792 14.7865 5.73992 14.7881 5.74512C14.7903 5.75217 14.7908 5.75485 14.791 5.75586L14.792 5.75781C14.8028 5.81267 14.8086 5.86733 14.8086 5.92188V17.4287C14.8077 18.7927 13.7019 19.8986 12.3379 19.9004H2.57031C1.20627 19.8986 0.100493 18.7926 0.0996094 17.4287V2.57129C0.100514 1.2073 1.20632 0.101376 2.57031 0.0996094ZM2.57031 1.78223C2.13555 1.78223 1.78248 2.13487 1.78223 2.57031V17.4287C1.78223 17.8644 2.1354 18.2178 2.57031 18.2178H12.3379C12.7727 18.2178 13.1258 17.865 13.127 17.4297V6.76367H10.5342L10.3301 6.75391C9.32405 6.65024 8.53983 5.80061 8.53809 4.76758V1.78223H2.57031ZM10.2197 4.7666C10.2198 4.94036 10.3604 5.08105 10.5342 5.08105L11.8584 5.08203H12.083L11.9326 4.91504L10.3945 3.2002L10.2197 3.00586V4.7666Z" fill="#01252F" stroke="#F6F6F6" stroke-width="0.2"/>
<path d="M4.16016 14.1775H10.748C11.213 14.1775 11.5889 14.5552 11.5889 15.0193C11.5887 15.4842 11.213 15.8601 10.748 15.8601H4.16016C3.69525 15.8601 3.31848 15.4842 3.31836 15.0193C3.31836 14.5552 3.69524 14.1775 4.16016 14.1775Z" fill="#01252F" stroke="#F6F6F6" stroke-width="0.2"/>
<path d="M4.16016 10.8054H10.748C11.213 10.8054 11.5889 11.1822 11.5889 11.6472C11.5887 12.1121 11.213 12.488 10.748 12.488H4.16016C3.69525 12.488 3.31848 12.1121 3.31836 11.6472C3.31836 11.1822 3.69517 10.8054 4.16016 10.8054Z" fill="#01252F" stroke="#F6F6F6" stroke-width="0.2"/>
<path d="M4.16016 7.43311H7.4541C7.91906 7.43314 8.29492 7.80994 8.29492 8.2749C8.2948 8.73891 7.91892 9.11569 7.4541 9.11572H4.16016C3.69531 9.11572 3.31848 8.73893 3.31836 8.2749C3.31836 7.80992 3.69517 7.43311 4.16016 7.43311Z" fill="#01252F" stroke="#F6F6F6" stroke-width="0.2"/>
<path d="M4.16016 4.06006H5.80664C6.27156 4.06006 6.64844 4.43773 6.64844 4.90186C6.64831 5.36673 6.27155 5.74268 5.80664 5.74268H4.16016C3.69525 5.74268 3.31848 5.36673 3.31836 4.90186C3.31836 4.43773 3.69524 4.06006 4.16016 4.06006Z" fill="#01252F" stroke="#F6F6F6" stroke-width="0.2"/>
</svg>
