<svg width="22" height="20" viewBox="0 0 22 20" fill="none" xmlns="http://www.w3.org/2000/svg">
<path d="M10.6255 11.7637C10.1633 11.7637 9.94873 12.0608 9.94873 12.523C9.94873 13.1502 9.94873 13.7774 9.94873 14.4211C9.94873 15.1144 9.94873 15.7911 9.94873 16.4844C9.94873 16.9466 10.1798 17.2437 10.6255 17.2437C11.0711 17.2437 11.3022 16.9466 11.3022 16.4844C11.3022 15.1639 11.3022 13.8599 11.3022 12.5395C11.3022 12.0608 11.0876 11.7637 10.6255 11.7637Z" fill="#01252F"/>
<path d="M14.7354 17.2104C15.1811 17.2269 15.4287 16.9463 15.4287 16.4841C15.4287 15.1471 15.4287 13.7936 15.4287 12.4566C15.4287 12.044 15.1976 11.7634 14.785 11.7634C14.3228 11.7469 14.0917 12.0275 14.0917 12.4897C14.0917 13.1499 14.0917 13.8101 14.0917 14.4704C14.0917 15.1306 14.0917 15.7909 14.0917 16.4511C14.0752 16.8968 14.2898 17.1939 14.7354 17.2104Z" fill="#01252F"/>
<path d="M7.17576 14.5364C7.17576 13.8762 7.17576 13.2159 7.17576 12.5557C7.17576 12.077 6.9942 11.7304 6.466 11.7469C5.98733 11.7634 5.82227 12.077 5.82227 12.5227C5.82227 13.8102 5.82227 15.0976 5.82227 16.3851C5.82227 16.8638 6.02034 17.2104 6.53203 17.1939C7.02721 17.1774 7.19227 16.8143 7.19227 16.3356C7.15926 15.7579 7.17576 15.1472 7.17576 14.5364Z" fill="#01252F"/>
<path d="M21.1563 7.60395C20.9913 6.77865 20.4301 6.16792 19.5552 6.23395C18.6309 6.29997 18.1027 5.8378 17.525 5.26009C15.9239 3.62599 14.3063 2.0249 12.6887 0.407311C12.3421 0.0606836 11.9624 -0.186907 11.5498 0.192732C11.0711 0.62189 11.3517 1.01803 11.7149 1.38117C12.243 1.90936 12.7712 2.43756 13.2829 2.94924C14.3228 3.97262 15.3627 5.0125 16.5181 6.15142C12.5071 6.15142 8.71075 6.15142 4.61725 6.15142C5.24448 5.5572 5.72315 5.14455 6.16882 4.69889C7.32424 3.55997 8.46316 2.40454 9.60208 1.26563C9.9322 0.935505 10.0642 0.555865 9.68461 0.192732C9.33798 -0.120883 8.97485 -0.0218466 8.66123 0.275262C8.51268 0.407311 8.39713 0.539359 8.24858 0.687914C6.6805 2.25599 5.07942 3.82406 3.54435 5.42515C3.03267 5.95335 2.55399 6.25045 1.77821 6.21744C0.83736 6.18443 0.259648 6.72913 0.0780817 7.58745C-0.153003 8.75938 0.1276 9.83227 0.936397 10.1129C1.54712 10.3275 1.61314 10.7236 1.67917 11.2188C2.0258 13.3646 2.37242 15.4938 2.73556 17.6396C3.04917 19.4718 3.69291 20 5.5746 20C8.99135 20 12.3916 20 15.8084 20C17.8056 20 18.4658 19.3893 18.7134 17.4416C18.994 15.2628 19.3407 13.1005 19.6378 10.9217C19.6873 10.5255 19.8193 10.3274 20.2155 10.1789C21.0903 9.81576 21.4039 8.84191 21.1563 7.60395ZM19.0766 8.99046C17.0628 8.95745 15.0656 8.99046 13.0518 8.97395C12.5567 8.97395 12.045 9.00697 12.045 9.6342C12.045 10.2614 12.5237 10.3275 13.0353 10.3275C14.7685 10.3109 16.5016 10.3275 18.3338 10.3275C17.9706 12.8529 17.6075 15.2958 17.2609 17.7552C17.1784 18.3659 16.8978 18.6135 16.287 18.597C12.5732 18.5805 8.8593 18.5805 5.14544 18.597C4.53472 18.597 4.25411 18.3494 4.15508 17.7552C3.79194 15.5104 3.41231 13.2655 3.01616 11.0207C2.93363 10.5255 2.98315 10.2944 3.59387 10.3109C5.0299 10.3605 6.44942 10.3275 7.88545 10.3275C8.43015 10.3275 9.20593 10.509 9.18943 9.6342C9.17292 8.75938 8.39714 8.99046 7.85244 8.99046C5.95424 8.97395 4.05604 8.95745 2.15784 8.99046C1.58013 9.00697 1.38206 8.8254 1.38206 8.23118C1.38206 7.63696 1.66266 7.57094 2.14134 7.57094C7.7699 7.58745 13.415 7.58745 19.0435 7.57094C19.5387 7.57094 19.8028 7.66998 19.8028 8.24769C19.8523 8.84191 19.6378 9.00697 19.0766 8.99046Z" fill="#01252F"/>
</svg>
